<svg id="Layer_1" xmlns="http://www.w3.org/2000/svg" xmlns:xlink="http://www.w3.org/1999/xlink" viewBox="0 0 144 256.9"><style>.st0{fill:#fff3f3}.st0,.st1{clip-path:url(#SVGID_2_)}.st1,.st2{fill:#00ce67}</style><title>Asset 2</title><defs><path id="SVGID_1_" d="M-.2 0H144v257.2H-.2z"/></defs><clipPath id="SVGID_2_"><use xlink:href="#SVGID_1_" overflow="visible"/></clipPath><path class="st0" d="M-5-4.5h154.2v266.3H-5V-4.5z"/><path class="st1" d="M74.2-1.9c-.1-1.2-1.1-2-2.2-2s-2 1.1-2 2.2c0 .3 0 .5.1.7.2 1 .2 2.9-.5 3.4-.2.2-.7.5-2.3.1l-.1-.4c0-.3-.1-.6-.1-.9 0-.6 0-1.3.1-1.9s.1-1.3.2-1.9c.2-1.3.4-2.6.7-3.9.2-.7.3-1.3.5-2 .1-.3.2-.7.3-1l.2-.5.1-.3.1-.2v-.1c0-.1 0-.1.1-.2.5-1.6-.6-3.3-2.2-3.7s-3.3.6-3.7 2.2l-.1.3-.1.3-.2.6c-.1.4-.2.8-.3 1.1-.2.8-.3 1.5-.4 2.2-.3 1.5-.5 3-.6 4.5-.1.8-.1 1.5-.1 2.3s0 1.6.1 2.4v.2h-.1c-.4-.1-.9-.2-1.2-.4-.3 0-.5-.2-.8-.4-.2-.2-.3-.4-.3-.6-.1-.3-.1-.5 0-.8.1-.4.1-.7.2-1 .1-.4.3-.8.5-1.2l.3-.6.2-.3.1-.1.1-.1c.7-1.5.1-3.3-1.4-4-1.5-.7-3.3-.1-4 1.4v.1l-.1.1-.1.3-.1.3c-.1.1-.1.3-.2.4-.1.4-.2.7-.2 1-.2.7-.2 1.4-.3 2.1-.1.8 0 1.5.2 2.3.2.8.5 1.6.9 2.3.5.8 1.1 1.4 1.9 1.9.6.3 1.4.5 2.1.7.7.1 1.4.2 2 .1.3 0 .6-.1.9-.1.1.4.3.8.4 1.3.1.6.2 1.1.4 1.7.1.7.3 1.3.4 2 .1.7.2 1.3.3 1.9.1.3.1.6.1.9l.1-1.1v.6c.1 1.3 1.2 2.3 2.5 2.2 1.3-.1 2.2-1.1 2.2-2.4v-.6 1c0-.4-.1-.8-.1-1.1-.1-.7-.2-1.4-.2-2.1l-.3-2.1-.1-.3h.6c1.4.1 2.7-.4 3.7-1.3 2.5-2.3 2-6.2 1.8-7.5zm0 257.5c-.1-1.2-1.1-2-2.2-2-1.2.1-2 1.1-2 2.2 0 .2.1.4.1.6.2 1 .2 2.9-.5 3.4-.2.2-.7.5-2.3.1l-.1-.4c0-.3-.1-.6-.1-.9 0-.6 0-1.3.1-1.9s.1-1.3.2-1.9c.2-1.3.4-2.6.7-3.9.2-.7.3-1.3.5-2 .1-.3.2-.7.3-1l.2-.5.1-.3.1-.2v-.1c0-.1 0-.1.1-.2.5-1.6-.6-3.3-2.2-3.7-1.6-.5-3.3.6-3.7 2.2l-.1.3-.1.3-.2.6c-.1.4-.2.8-.3 1.1-.2.8-.3 1.5-.4 2.2-.3 1.5-.5 3-.6 4.5-.1.8-.1 1.5-.1 2.3 0 .8 0 1.6.1 2.4v.2h-.1c-.4-.1-.9-.2-1.2-.4-.3-.2-.6-.3-.8-.6-.2-.2-.3-.4-.3-.6-.1-.3-.1-.5 0-.8.1-.4.1-.7.2-1 .1-.4.3-.8.5-1.2l.3-.6.2-.3.1-.1.1-.1c.7-1.5.1-3.3-1.4-4-1.5-.7-3.3-.1-4 1.4v.1l-.1.1-.1.2-.1.3c-.1.2-.1.4-.2.5-.1.4-.2.7-.2 1-.2.7-.2 1.4-.3 2.1-.1.8 0 1.5.2 2.3.2.9.5 1.7.9 2.4.5.8 1.1 1.4 1.9 1.9.7.4 1.4.7 2.2.8.7.1 1.4.2 2 .1.3 0 .6-.1.9-.1.1.4.3.8.4 1.3.1.6.2 1.1.4 1.7.1.7.3 1.3.4 2 .1.7.2 1.3.3 1.9.1.3.1.6.1.9l.1-1.1v.6c.1 1.3 1.2 2.3 2.5 2.2 1.3-.1 2.2-1.1 2.2-2.4v-.6 1c0-.4-.1-.8-.1-1.1-.1-.7-.2-1.4-.2-2.1s-.2-1.4-.3-2.1l-.1-.3h.6c1.4.1 2.7-.4 3.7-1.3 2.4-2.2 1.9-6.1 1.7-7.4z"/><path class="st2" d="M74.2 126.8c-.1-1.2-1.1-2-2.2-2s-2 1.1-2 2.2c0 .2.1.4.1.6.2 1 .2 2.9-.5 3.4-.2.2-.7.5-2.3.1l-.1-.4c0-.3-.1-.6-.1-.9 0-.6 0-1.3.1-1.9s.1-1.3.2-1.9c.2-1.3.4-2.6.7-3.9.2-.7.3-1.3.5-2 .1-.3.2-.7.3-1l.2-.5.1-.3.1-.2v-.1c0-.1 0-.1.1-.2.5-1.6-.6-3.3-2.2-3.7s-3.3.6-3.7 2.2l-.1.3-.1.3-.2.6c-.1.4-.2.8-.3 1.1-.2.8-.3 1.5-.4 2.2-.3 1.5-.5 3-.6 4.5-.1.8-.1 1.5-.1 2.3s0 1.6.1 2.4v.2h-.1c-.4-.1-.9-.2-1.2-.4-.3-.2-.6-.3-.8-.6-.2-.2-.3-.4-.3-.6-.1-.3-.1-.5 0-.8.1-.4.1-.7.2-1 .1-.4.3-.8.5-1.2l.3-.6.2-.3.1-.1.1-.1c.7-1.5.1-3.3-1.4-4-1.5-.7-3.3-.1-4 1.4v.1l-.1.1-.1.2-.1.3c-.1.2-.1.4-.2.5-.1.4-.2.7-.2 1-.2.7-.2 1.4-.3 2.1-.1.8 0 1.5.2 2.3.2.9.5 1.7.9 2.4.5.8 1.1 1.4 1.9 1.9.7.4 1.4.7 2.2.8.7.1 1.4.2 2 .1.3 0 .6-.1.9-.1.1.4.3.8.4 1.3.1.6.2 1.1.4 1.7.1.7.3 1.3.4 2 .1.7.2 1.3.3 1.9.1.3.1.6.1.9l.1-1.1v.6c.1 1.3 1.2 2.3 2.5 2.2 1.3-.1 2.2-1.1 2.2-2.4v-.6 1c0-.4-.1-.8-.1-1.1-.1-.7-.2-1.4-.2-2.1s-.2-1.4-.3-2.1l-.1-.3h.6c1.4.1 2.7-.4 3.7-1.3 2.4-2.3 1.9-6.2 1.7-7.4zm56.4 67.7s0 .1 0 0zm13.3 2.1c-.1-1.2-1.1-2-2.2-2-1.2.1-2 1.1-2 2.2 0 .2.1.4.1.6.2 1 .2 2.9-.5 3.4-.2.2-.7.5-2.3.1l-.1-.4c0-.3-.1-.6-.1-.9 0-.6 0-1.3.1-1.9.1-.7.1-1.3.2-1.9.2-1.3.4-2.6.7-3.9.2-.7.3-1.3.5-2 .1-.3.2-.7.3-1l.2-.5.1-.3.1-.2v-.1c0-.1 0-.1.1-.2.5-1.6-.6-3.3-2.2-3.7-1.6-.4-3.3.6-3.7 2.2l-.1.3-.1.6-.2.6c-.1.4-.2.8-.3 1.1-.2.8-.3 1.5-.4 2.2-.3 1.5-.5 3-.6 4.5-.1.8-.1 1.5-.1 2.3s0 1.6.1 2.4v.2c-.4-.1-.9-.2-1.2-.4-.3-.2-.6-.3-.8-.6-.2-.2-.3-.4-.3-.6-.1-.3-.1-.5 0-.8.1-.4.1-.7.2-1 .1-.4.3-.8.5-1.2l.3-.6.2-.3.1-.1.1-.1c.8-1.5.1-3.3-1.4-4.1-1.5-.8-3.3-.1-4.1 1.4h-.1v.1l-.1.1-.1.2-.1.3c-.1.2-.1.4-.2.5-.1.4-.2.7-.2 1-.2.7-.2 1.4-.3 2.1-.1.8 0 1.5.2 2.3.2.9.5 1.7.9 2.4.5.8 1.1 1.4 1.9 1.9.7.4 1.4.7 2.2.8.7.1 1.4.2 2 .1.3 0 .6-.1.9-.1.1.4.3.8.4 1.3.1.6.3 1.1.4 1.7.1.7.3 1.3.4 2 .1.7.2 1.3.3 1.9.1.3.1.6.1.9l.1-1.1v.6c.1 1.3 1.2 2.3 2.5 2.2 1.3-.1 2.2-1.1 2.2-2.4v-.7 1c0-.4-.1-.8-.1-1.1-.1-.7-.2-1.4-.2-2.1l-.3-2.1-.1-.3h.6c1.4.1 2.7-.4 3.7-1.3 2.6-2.4 2.1-6.3 1.8-7.5zm0-144.2c-.1-1.2-1.1-2-2.2-2-1.2.1-2 1.1-2 2.2 0 .2.1.4.1.6.2 1 .2 2.9-.5 3.4-.2.2-.7.5-2.3.1l-.1-.4c0-.3-.1-.6-.1-.9 0-.6 0-1.3.1-1.9.1-.7.1-1.3.2-1.9.2-1.3.4-2.6.7-3.9.2-.7.3-1.3.5-2 .1-.3.2-.7.3-1l.2-.5.1-.3.1.1v-.1c0-.1 0-.1.1-.2.5-1.6-.6-3.3-2.2-3.7-1.6-.4-3.3.6-3.7 2.2l-.1.3-.1.3-.2.6c-.1.4-.2.7-.3 1.1-.2.8-.3 1.5-.4 2.2-.3 1.5-.5 3-.6 4.5-.1.8-.1 1.5-.1 2.3 0 .8 0 1.6.1 2.4v.1c-.4-.1-.9-.2-1.2-.4-.3-.2-.6-.3-.8-.6-.2-.2-.3-.4-.3-.6-.1-.3-.1-.5 0-.8.1-.4.1-.7.2-1 .1-.4.3-.8.5-1.2l.3-.6.2-.3.1-.1.1-.1c.8-1.5.1-3.3-1.4-4.1-1.5-.8-3.3-.1-4.1 1.4h-.1v.4l-.1.1-.1.2-.1.3c-.1.2-.1.4-.2.5-.1.4-.2.7-.2 1-.2.7-.2 1.4-.3 2.1-.1.8 0 1.5.2 2.3.2.9.5 1.7.9 2.4.5.8 1.1 1.4 1.9 1.9.7.4 1.4.7 2.2.8.7.1 1.4.2 2 .1.3 0 .6-.1.9-.1.1.4.3.8.4 1.2.1.6.3 1.1.4 1.7.1.7.3 1.3.4 2 .1.7.2 1.3.3 1.9.1.3.1.6.1.9l.1-1.1v.6c.1 1.3 1.2 2.3 2.5 2.2 1.3-.1 2.2-1.1 2.2-2.4V66v1c0-.4-.1-.8-.1-1.1-.1-.7-.2-1.4-.2-2.1l-.3-2.1-.1-.3h.6c1.4.1 2.7-.4 3.7-1.3 2.6-2.5 2.1-6.4 1.8-7.7z"/></svg>